# xmcd CD database file
#
# Track frame offsets:
#	150
#	25326
#	56017
#	83644
#	104600
#	122725
#	153011
#	184474
#	229649
#
# Disc length: 3406 seconds
#
# Revision: 1
# Processed by: cddbd v1.5.1PL0 Copyright (c) Steve Scherf et al.
# Submitted via: CDex 1.51
#
DISCID=6d0d4c09
DTITLE=Ben Harper - Cool Man
DYEAR=1900
DGENRE=Blues
TTITLE0=Excuse Me Mister
TTITLE1=Don't Take That Attitude To Your Grave
TTITLE2=Gold Me
TTITLE3=Please Me Like You Want
TTITLE4=Burn One Down
TTITLE5=Ground On Down
TTITLE6=Like A King
TTITLE7=Breaking Down ...Arise
TTITLE8=It's So  Easy
EXTD=
EXTT0=
EXTT1=
EXTT2=
EXTT3=
EXTT4=
EXTT5=
EXTT6=
EXTT7=
EXTT8=
PLAYORDER=
